<?xml version="1.0" standalone="no"?>
<!DOCTYPE svg PUBLIC "-//W3C//DTD SVG 1.1//EN"
  "http://www.w3.org/Graphics/SVG/1.1/DTD/svg11.dtd">
<svg width="138mm" height="178.99999999999997mm" viewBox="-69 -89.49999999999999 138 178.99999999999997" xmlns="http://www.w3.org/2000/svg" version="1.1">
	<title>svgOutput</title>
	<desc>made with tinkercad</desc>
<path d="M 55 -88.49999999999999 L 55 -81.9199981689453 L 55 -77.82399749755858 L 55 -73.72799682617186 L 55 -70.50299835205077 L 49.152000427246094 -70.50299835205077 L 45.055999755859375 -70.50299835205077 L 44.99800109863281 -70.50299835205077 L 44.99800109863281 -69.63200378417967 L 44.99800109863281 -65.53600311279295 L 44.99800109863281 -57.34400177001952 L 44.99800109863281 -53.2480010986328 L 44.99800109863281 -52.4980010986328 L 45.055999755859375 -52.4980010986328 L 49.152000427246094 -52.4980010986328 L 55 -52.4980010986328 L 55 -49.15200042724608 L 55 -36.49999999999999 L 61.27654266357422 -36.49999999999999 L 63.26948165893555 -36.49999999999999 L 65.53600311279297 -36.49999999999999 L 68 -36.49999999999999 L 68 1.1102230246251565e-16 L 68 28.499999999999993 L 65.53600311279297 28.499999999999993 L 55 28.499999999999993 L 55 32.76800155639648 L 55 44.498001098632805 L 49.152000427246094 44.498001098632805 L 45.055999755859375 44.498001098632805 L 44.99800109863281 44.498001098632805 L 44.99800109863281 45.05599975585937 L 44.99800109863281 49.15200042724608 L 44.99800109863281 57.34400177001952 L 44.99800109863281 61.43999862670897 L 44.99800109863281 62.50299835205077 L 45.055999755859375 62.50299835205077 L 49.152000427246094 62.50299835205077 L 55 62.50299835205077 L 55 65.53600311279295 L 55 65.99324798583983 L 55 72.13573455810545 L 55 76.18699645996092 L 32.768001556396484 85.39648437499999 L 25.275999069213867 88.49999999999999 L 16.384000778198242 88.49999999999999 L 0 88.49999999999999 L -16.384000778198242 88.49999999999999 L -24.777000427246094 88.49999999999999 L -32.768001556396484 85.18969726562499 L -55 75.98000335693358 L -55 65.53600311279295 L -55 62.50299835205077 L -49.152000427246094 62.50299835205077 L -45.055999755859375 62.50299835205077 L -44.999000549316406 62.50299835205077 L -44.999000549316406 61.43999862670897 L -44.999000549316406 57.34400177001952 L -44.999000549316406 49.15200042724608 L -44.999000549316406 45.05599975585937 L -44.999000549316406 44.498001098632805 L -45.055999755859375 44.498001098632805 L -49.152000427246094 44.498001098632805 L -55 44.498001098632805 L -55 32.76800155639648 L -55 28.499999999999993 L -59.918983459472656 28.499999999999993 L -65.53600311279297 28.499999999999993 L -68 28.499999999999993 L -68 1.1102230246251565e-16 L -68 -36.49999999999999 L -65.53600311279297 -36.49999999999999 L -63.278621673583984 -36.49999999999999 L -55 -36.49999999999999 L -55 -49.15200042724608 L -55 -52.4980010986328 L -49.152000427246094 -52.4980010986328 L -45.055999755859375 -52.4980010986328 L -44.999000549316406 -52.4980010986328 L -44.999000549316406 -53.2480010986328 L -44.999000549316406 -57.34400177001952 L -44.999000549316406 -65.53600311279295 L -44.999000549316406 -69.63200378417967 L -44.999000549316406 -70.50299835205077 L -45.055999755859375 -70.50299835205077 L -49.152000427246094 -70.50299835205077 L -55 -70.50299835205077 L -55 -73.72799682617186 L -55 -77.82399749755858 L -55 -81.9199981689453 L -55 -88.49999999999999 L -53.24800109863281 -88.49999999999999 L -49.152000427246094 -88.49999999999999 L -32.768001556396484 -88.49999999999999 L -16.384000778198242 -88.49999999999999 L 0 -88.49999999999999 L 16.384000778198242 -88.49999999999999 L 32.768001556396484 -88.49999999999999 L 49.152000427246094 -88.49999999999999 L 53.24800109863281 -88.49999999999999 L 55 -88.49999999999999 M 24.576000213623047 43.00799942016601 L 22.765323638916016 43.00799942016601 L 22.76799964904785 43.01200103759765 L 22.875999450683594 43.136001586914055 L 23 43.243999481201165 L 23.13599967956543 43.33499908447265 L 23.283000946044922 43.40700149536132 L 23.437999725341797 43.45999908447265 L 23.599000930786133 43.49200057983398 L 23.924999237060547 43.49200057983398 L 24.086000442504883 43.45999908447265 L 24.240999221801758 43.40700149536132 L 24.38800048828125 43.33499908447265 L 24.52400016784668 43.243999481201165 L 24.576000213623047 43.198711395263665 L 24.648000717163086 43.136001586914055 L 24.756000518798828 43.01200103759765 L 24.847000122070312 42.87599945068359 L 24.91900062561035 42.72900009155273 L 24.972000122070312 42.57400131225585 L 25.003999710083008 42.41299819946288 L 25.014999389648438 42.24999999999999 L 25.003999710083008 42.0870018005371 L 24.972000122070312 41.92599868774413 L 24.91900062561035 41.77099990844726 L 24.847000122070312 41.6240005493164 L 24.756000518798828 41.48799896240234 L 24.648000717163086 41.36399841308593 L 24.576000213623047 41.30128860473632 L 24.576000213623047 41.98400115966796 L 24.576000213623047 43.00799942016601 M 52.3120002746582 -82.56199645996092 L 52.165000915527344 -82.69200134277342 L 52.000999450683594 -82.80100250244139 L 51.82500076293945 -82.88800048828124 L 51.638999938964844 -82.95099639892577 L 51.44599914550781 -82.98999786376952 L 51.25 -83.00299835205077 L 51.20000076293945 -82.9996871948242 L 51.05400085449219 -82.98999786376952 L 50.861000061035156 -82.95099639892577 L 50.67499923706055 -82.88800048828124 L 50.499000549316406 -82.80100250244139 L 50.334999084472656 -82.69200134277342 L 50.1879997253418 -82.56199645996092 L 50.05799865722656 -82.41500091552733 L 49.94900131225586 -82.25099945068358 L 49.86199951171875 -82.07499694824217 L 49.80950164794922 -81.9199981689453 L 49.79899978637695 -81.88899993896483 L 49.7599983215332 -81.6959991455078 L 49.74800109863281 -81.49999999999999 L 49.7599983215332 -81.30400085449217 L 49.79899978637695 -81.11100006103514 L 49.86199951171875 -80.9250030517578 L 49.94900131225586 -80.74900054931639 L 50.05799865722656 -80.58499908447264 L 50.1879997253418 -80.43800354003905 L 50.334999084472656 -80.30799865722655 L 50.499000549316406 -80.19899749755858 L 50.67499923706055 -80.11199951171874 L 50.861000061035156 -80.0490036010742 L 51.05400085449219 -80.01000213623045 L 51.20000076293945 -80.00106048583983 L 51.25 -79.9980010986328 L 51.44599914550781 -80.01000213623045 L 51.638999938964844 -80.0490036010742 L 51.82500076293945 -80.11199951171874 L 52.000999450683594 -80.19899749755858 L 52.165000915527344 -80.30799865722655 L 52.3120002746582 -80.43800354003905 L 52.44200134277344 -80.58499908447264 L 52.55099868774414 -80.74900054931639 L 52.63800048828125 -80.9250030517578 L 52.70100021362305 -81.11100006103514 L 52.7400016784668 -81.30400085449217 L 52.75299835205078 -81.49999999999999 L 52.7400016784668 -81.6959991455078 L 52.70100021362305 -81.88899993896483 L 52.69049835205078 -81.9199981689453 L 52.63800048828125 -82.07499694824217 L 52.55099868774414 -82.25099945068358 L 52.44200134277344 -82.41500091552733 L 52.3120002746582 -82.56199645996092 M 42.5989990234375 -73.9919967651367 L 42.4379997253418 -73.95999908447264 L 42.28300094604492 -73.90699768066405 L 42.13600158691406 -73.83499908447264 L 42 -73.74400329589842 L 41.98162841796875 -73.72799682617186 L 41.875999450683594 -73.63600158691405 L 41.768001556396484 -73.51200103759764 L 41.676998138427734 -73.37599945068358 L 41.60499954223633 -73.22899627685545 L 41.551998138427734 -73.07399749755858 L 41.52000045776367 -72.91300201416014 L 41.5099983215332 -72.74999999999999 L 41.52000045776367 -72.58699798583983 L 41.551998138427734 -72.42600250244139 L 41.60499954223633 -72.27100372314452 L 41.676998138427734 -72.12400054931639 L 41.768001556396484 -71.98799896240233 L 41.875999450683594 -71.86399841308592 L 42 -71.75599670410155 L 42.113582611083984 -71.68000030517577 L 42.13600158691406 -71.66500091552733 L 42.28300094604492 -71.59300231933592 L 42.4379997253418 -71.54000091552733 L 42.5989990234375 -71.50800323486327 L 42.762001037597656 -71.4980010986328 L 42.92499923706055 -71.50800323486327 L 43.08599853515625 -71.54000091552733 L 43.24100112915039 -71.59300231933592 L 43.38800048828125 -71.66500091552733 L 43.41041946411133 -71.68000030517577 L 43.52399826049805 -71.75599670410155 L 43.64799880981445 -71.86399841308592 L 43.75600051879883 -71.98799896240233 L 43.84700012207031 -72.12400054931639 L 43.91899871826172 -72.27100372314452 L 43.97200012207031 -72.42600250244139 L 44.00400161743164 -72.58699798583983 L 44.01499938964844 -72.74999999999999 L 44.00400161743164 -72.91300201416014 L 43.97200012207031 -73.07399749755858 L 43.91899871826172 -73.22899627685545 L 43.84700012207031 -73.37599945068358 L 43.75600051879883 -73.51200103759764 L 43.64799880981445 -73.63600158691405 L 43.5423698425293 -73.72799682617186 L 43.52399826049805 -73.74400329589842 L 43.38800048828125 -73.83499908447264 L 43.24100112915039 -73.90699768066405 L 43.08599853515625 -73.95999908447264 L 42.92499923706055 -73.9919967651367 L 42.762001037597656 -74.00299835205077 L 42.5989990234375 -73.9919967651367 M 23.437999725341797 -73.95999908447264 L 23.283000946044922 -73.90699768066405 L 23.13599967956543 -73.83499908447264 L 23 -73.74400329589842 L 22.981630325317383 -73.72799682617186 L 22.875999450683594 -73.63600158691405 L 22.76799964904785 -73.51200103759764 L 22.677000045776367 -73.37599945068358 L 22.604999542236328 -73.22899627685545 L 22.552000045776367 -73.07399749755858 L 22.527999877929688 -72.95324707031249 L 22.520000457763672 -72.91300201416014 L 22.510000228881836 -72.74999999999999 L 22.520000457763672 -72.58699798583983 L 22.527999877929688 -72.54675292968749 L 22.552000045776367 -72.42600250244139 L 22.604999542236328 -72.27100372314452 L 22.677000045776367 -72.12400054931639 L 22.76799964904785 -71.98799896240233 L 22.875999450683594 -71.86399841308592 L 23 -71.75599670410155 L 23.113582611083984 -71.68000030517577 L 23.13599967956543 -71.66500091552733 L 23.283000946044922 -71.59300231933592 L 23.437999725341797 -71.54000091552733 L 23.599000930786133 -71.50800323486327 L 23.761999130249023 -71.4980010986328 L 23.924999237060547 -71.50800323486327 L 24.086000442504883 -71.54000091552733 L 24.240999221801758 -71.59300231933592 L 24.38800048828125 -71.66500091552733 L 24.410417556762695 -71.68000030517577 L 24.52400016784668 -71.75599670410155 L 24.576000213623047 -71.80129241943358 L 24.648000717163086 -71.86399841308592 L 24.756000518798828 -71.98799896240233 L 24.847000122070312 -72.12400054931639 L 24.91900062561035 -72.27100372314452 L 24.972000122070312 -72.42600250244139 L 25.003999710083008 -72.58699798583983 L 25.014999389648438 -72.74999999999999 L 25.003999710083008 -72.91300201416014 L 24.972000122070312 -73.07399749755858 L 24.91900062561035 -73.22899627685545 L 24.847000122070312 -73.37599945068358 L 24.756000518798828 -73.51200103759764 L 24.648000717163086 -73.63600158691405 L 24.576000213623047 -73.69870758056639 L 24.542369842529297 -73.72799682617186 L 24.52400016784668 -73.74400329589842 L 24.38800048828125 -73.83499908447264 L 24.240999221801758 -73.90699768066405 L 24.086000442504883 -73.95999908447264 L 23.924999237060547 -73.9919967651367 L 23.761999130249023 -74.00299835205077 L 23.599000930786133 -73.9919967651367 L 23.437999725341797 -73.95999908447264 M 19.481000900268555 -71.8669967651367 L 19.351999282836914 -72.01499938964842 L 19.20400047302246 -72.1439971923828 L 19.040000915527344 -72.25299835205077 L 18.86400032043457 -72.33999633789061 L 18.67799949645996 -72.40399932861327 L 18.485000610351562 -72.44200134277342 L 18.43199920654297 -72.44551849365233 L 18.288999557495117 -72.45500183105467 L 18.093000411987305 -72.44200134277342 L 17.899999618530273 -72.40399932861327 L 17.714000701904297 -72.33999633789061 L 17.538000106811523 -72.25299835205077 L 17.375 -72.1439971923828 L 17.226999282836914 -72.01499938964842 L 17.097000122070312 -71.8669967651367 L 16.988000869750977 -71.70300292968749 L 16.97663116455078 -71.68000030517577 L 16.900999069213867 -71.52700042724608 L 16.83799934387207 -71.34100341796874 L 16.799999237060547 -71.1480026245117 L 16.78700065612793 -70.95200347900389 L 16.799999237060547 -70.75599670410155 L 16.83799934387207 -70.56300354003905 L 16.900999069213867 -70.37699890136717 L 16.988000869750977 -70.20099639892577 L 17.097000122070312 -70.03800201416014 L 17.226999282836914 -69.88999938964842 L 17.375 -69.76000213623045 L 17.538000106811523 -69.65100097656249 L 17.57643699645996 -69.63200378417967 L 17.714000701904297 -69.56400299072264 L 17.899999618530273 -69.50099945068358 L 18.093000411987305 -69.46299743652342 L 18.288999557495117 -69.44999694824217 L 18.485000610351562 -69.46299743652342 L 18.67799949645996 -69.50099945068358 L 18.86400032043457 -69.56400299072264 L 19.001564025878906 -69.63200378417967 L 19.040000915527344 -69.65100097656249 L 19.20400047302246 -69.76000213623045 L 19.351999282836914 -69.88999938964842 L 19.481000900268555 -70.03800201416014 L 19.59000015258789 -70.20099639892577 L 19.677000045776367 -70.37699890136717 L 19.740999221801758 -70.56300354003905 L 19.77899932861328 -70.75599670410155 L 19.79199981689453 -70.95200347900389 L 19.77899932861328 -71.1480026245117 L 19.740999221801758 -71.34100341796874 L 19.677000045776367 -71.52700042724608 L 19.601369857788086 -71.68000030517577 L 19.59000015258789 -71.70300292968749 L 19.481000900268555 -71.8669967651367 M 43.24100112915039 -51.407001495361314 L 43.08599853515625 -51.45999908447264 L 42.92499923706055 -51.49200057983397 L 42.762001037597656 -51.50299835205077 L 42.5989990234375 -51.49200057983397 L 42.4379997253418 -51.45999908447264 L 42.28300094604492 -51.407001495361314 L 42.13600158691406 -51.33499908447264 L 42 -51.24399948120116 L 41.94948196411133 -51.20000076293944 L 41.875999450683594 -51.13600158691405 L 41.768001556396484 -51.01200103759764 L 41.676998138427734 -50.87599945068358 L 41.60499954223633 -50.72900009155272 L 41.551998138427734 -50.574001312255845 L 41.52000045776367 -50.412998199462876 L 41.5099983215332 -50.249999999999986 L 41.52000045776367 -50.087001800537095 L 41.551998138427734 -49.925998687744126 L 41.60499954223633 -49.77099990844725 L 41.676998138427734 -49.62400054931639 L 41.768001556396484 -49.48799896240233 L 41.875999450683594 -49.36399841308592 L 42 -49.256000518798814 L 42.13600158691406 -49.16500091552733 L 42.162540435791016 -49.15200042724608 L 42.28300094604492 -49.09299850463866 L 42.4379997253418 -49.04000091552733 L 42.5989990234375 -49.007999420166 L 42.762001037597656 -48.9980010986328 L 42.92499923706055 -49.007999420166 L 43.08599853515625 -49.04000091552733 L 43.24100112915039 -49.09299850463866 L 43.36145782470703 -49.15200042724608 L 43.38800048828125 -49.16500091552733 L 43.52399826049805 -49.256000518798814 L 43.64799880981445 -49.36399841308592 L 43.75600051879883 -49.48799896240233 L 43.84700012207031 -49.62400054931639 L 43.91899871826172 -49.77099990844725 L 43.97200012207031 -49.925998687744126 L 44.00400161743164 -50.087001800537095 L 44.01499938964844 -50.249999999999986 L 44.00400161743164 -50.412998199462876 L 43.97200012207031 -50.574001312255845 L 43.91899871826172 -50.72900009155272 L 43.84700012207031 -50.87599945068358 L 43.75600051879883 -51.01200103759764 L 43.64799880981445 -51.13600158691405 L 43.574520111083984 -51.20000076293944 L 43.52399826049805 -51.24399948120116 L 43.38800048828125 -51.33499908447264 L 43.24100112915039 -51.407001495361314 M 56.5 -33.00500106811523 L 56.303001403808594 -32.99200057983398 L 56.111000061035156 -32.95299911499023 L 55.92499923706055 -32.88999938964843 L 55.74800109863281 -32.80300140380859 L 55.69565963745117 -32.76800155639648 L 55.584999084472656 -32.69400024414062 L 55.4370002746582 -32.56399917602538 L 55.30699920654297 -32.416999816894524 L 55.198001861572266 -32.252998352050774 L 55.111000061035156 -32.07699966430663 L 55.04800033569336 -31.891000747680657 L 55.0099983215332 -31.697999954223626 L 54.99700164794922 -31.502000808715813 L 55.0099983215332 -31.305999755859368 L 55.04800033569336 -31.11300086975097 L 55.111000061035156 -30.92700004577636 L 55.198001861572266 -30.750999450683587 L 55.218605041503906 -30.719999313354485 L 55.30699920654297 -30.58699989318847 L 55.4370002746582 -30.44000053405761 L 55.584999084472656 -30.309999465942376 L 55.74800109863281 -30.20100021362304 L 55.92499923706055 -30.114000320434563 L 56.111000061035156 -30.051000595092766 L 56.303001403808594 -30.011999130249016 L 56.5 -29.999999999999993 L 56.69599914550781 -30.011999130249016 L 56.88800048828125 -30.051000595092766 L 57.07400131225586 -30.114000320434563 L 57.250999450683594 -30.20100021362304 L 57.34400177001953 -30.26318931579589 L 57.41400146484375 -30.309999465942376 L 57.5620002746582 -30.44000053405761 L 57.69200134277344 -30.58699989318847 L 57.80099868774414 -30.750999450683587 L 57.88800048828125 -30.92700004577636 L 57.95100021362305 -31.11300086975097 L 57.98899841308594 -31.305999755859368 L 58.00199890136719 -31.502000808715813 L 57.98899841308594 -31.697999954223626 L 57.95100021362305 -31.891000747680657 L 57.88800048828125 -32.07699966430663 L 57.80099868774414 -32.252998352050774 L 57.69200134277344 -32.416999816894524 L 57.5620002746582 -32.56399917602538 L 57.41400146484375 -32.69400024414062 L 57.34400177001953 -32.7408103942871 L 57.303340911865234 -32.76800155639648 L 57.250999450683594 -32.80300140380859 L 57.07400131225586 -32.88999938964843 L 56.88800048828125 -32.95299911499023 L 56.69599914550781 -32.99200057983398 L 56.5 -33.00500106811523 M 24.847000122070312 -49.62400054931639 L 24.91900062561035 -49.77099990844725 L 24.972000122070312 -49.925998687744126 L 25.003999710083008 -50.087001800537095 L 25.014999389648438 -50.249999999999986 L 25.003999710083008 -50.412998199462876 L 24.972000122070312 -50.574001312255845 L 24.91900062561035 -50.72900009155272 L 24.847000122070312 -50.87599945068358 L 24.756000518798828 -51.01200103759764 L 24.648000717163086 -51.13600158691405 L 24.576000213623047 -51.19871139526366 L 24.57451820373535 -51.20000076293944 L 24.52400016784668 -51.24399948120116 L 24.38800048828125 -51.33499908447264 L 24.240999221801758 -51.407001495361314 L 24.086000442504883 -51.45999908447264 L 23.924999237060547 -51.49200057983397 L 23.761999130249023 -51.50299835205077 L 23.599000930786133 -51.49200057983397 L 23.437999725341797 -51.45999908447264 L 23.283000946044922 -51.407001495361314 L 23.13599967956543 -51.33499908447264 L 23 -51.24399948120116 L 22.949481964111328 -51.20000076293944 L 22.875999450683594 -51.13600158691405 L 22.76799964904785 -51.01200103759764 L 22.677000045776367 -50.87599945068358 L 22.604999542236328 -50.72900009155272 L 22.552000045776367 -50.574001312255845 L 22.527999877929688 -50.45325088500975 L 22.520000457763672 -50.412998199462876 L 22.510000228881836 -50.249999999999986 L 22.520000457763672 -50.087001800537095 L 22.527999877929688 -50.04674911499022 L 22.552000045776367 -49.925998687744126 L 22.604999542236328 -49.77099990844725 L 22.677000045776367 -49.62400054931639 L 22.76799964904785 -49.48799896240233 L 22.875999450683594 -49.36399841308592 L 23 -49.256000518798814 L 23.13599967956543 -49.16500091552733 L 23.16254234313965 -49.15200042724608 L 23.283000946044922 -49.09299850463866 L 23.437999725341797 -49.04000091552733 L 23.599000930786133 -49.007999420166 L 23.761999130249023 -48.9980010986328 L 23.924999237060547 -49.007999420166 L 24.086000442504883 -49.04000091552733 L 24.240999221801758 -49.09299850463866 L 24.36145782470703 -49.15200042724608 L 24.38800048828125 -49.16500091552733 L 24.52400016784668 -49.256000518798814 L 24.576000213623047 -49.301288604736314 L 24.648000717163086 -49.36399841308592 L 24.756000518798828 -49.48799896240233 L 24.847000122070312 -49.62400054931639 M 17.23200035095215 -28.818000793457024 L 17.103755950927734 -28.67200088500976 L 17.101999282836914 -28.670000076293938 L 16.993000030517578 -28.506999969482415 L 16.9060001373291 -28.329999923706048 L 16.843000411987305 -28.143999099731438 L 16.804000854492188 -27.951999664306634 L 16.791000366210938 -27.754999160766594 L 16.804000854492188 -27.559000015258782 L 16.843000411987305 -27.367000579833977 L 16.9060001373291 -27.180000305175774 L 16.993000030517578 -27.003999710083 L 17.101999282836914 -26.840999603271477 L 17.23200035095215 -26.693000793457024 L 17.310022354125977 -26.6240005493164 L 17.378999710083008 -26.56299972534179 L 17.542999267578125 -26.454000473022454 L 17.7189998626709 -26.367000579833977 L 17.905000686645508 -26.30400085449218 L 18.097999572753906 -26.266000747680657 L 18.29400062561035 -26.253000259399407 L 18.489999771118164 -26.266000747680657 L 18.683000564575195 -26.30400085449218 L 18.868999481201172 -26.367000579833977 L 19.045000076293945 -26.454000473022454 L 19.208999633789062 -26.56299972534179 L 19.277976989746094 -26.6240005493164 L 19.356000900268555 -26.693000793457024 L 19.486000061035156 -26.840999603271477 L 19.594999313354492 -27.003999710083 L 19.68199920654297 -27.180000305175774 L 19.7450008392334 -27.367000579833977 L 19.784000396728516 -27.559000015258782 L 19.79599952697754 -27.754999160766594 L 19.784000396728516 -27.951999664306634 L 19.7450008392334 -28.143999099731438 L 19.68199920654297 -28.329999923706048 L 19.594999313354492 -28.506999969482415 L 19.486000061035156 -28.670000076293938 L 19.484243392944336 -28.67200088500976 L 19.356000900268555 -28.818000793457024 L 19.208999633789062 -28.947000503540032 L 19.045000076293945 -29.05699920654296 L 18.868999481201172 -29.143999099731438 L 18.683000564575195 -29.207000732421868 L 18.489999771118164 -29.24500083923339 L 18.29400062561035 -29.25799942016601 L 18.097999572753906 -29.24500083923339 L 17.905000686645508 -29.207000732421868 L 17.7189998626709 -29.143999099731438 L 17.542999267578125 -29.05699920654296 L 17.378999710083008 -28.947000503540032 L 17.23200035095215 -28.818000793457024 M -22.729999542236328 -73.90699768066405 L -22.87700080871582 -73.83499908447264 L -23.016799926757812 -73.72799682617186 L -23.136999130249023 -73.63600158691405 L -23.2450008392334 -73.51200103759764 L -23.334999084472656 -73.37599945068358 L -23.406999588012695 -73.22899627685545 L -23.459999084472656 -73.07399749755858 L -23.493000030517578 -72.91300201416014 L -23.503999710083008 -72.74999999999999 L -23.493000030517578 -72.58699798583983 L -23.459999084472656 -72.42600250244139 L -23.406999588012695 -72.27100372314452 L -23.334999084472656 -72.12400054931639 L -23.2450008392334 -71.98799896240233 L -23.136999130249023 -71.86399841308592 L -23.027624130249023 -71.76950073242186 L -22.99512481689453 -71.74462127685545 L -22.89925193786621 -71.68000030517577 L -22.87700080871582 -71.66500091552733 L -22.729999542236328 -71.59300231933592 L -22.575000762939453 -71.54000091552733 L -22.413000106811523 -71.50800323486327 L -22.25 -71.4980010986328 L -22.08799934387207 -71.50800323486327 L -21.926000595092773 -71.54000091552733 L -21.770999908447266 -71.59300231933592 L -21.624000549316406 -71.66500091552733 L -21.604402542114258 -71.68000030517577 L -21.36400032043457 -71.86399841308592 L -21.256000518798828 -71.98799896240233 L -21.166000366210938 -72.12400054931639 L -21.0939998626709 -72.27100372314452 L -21.041000366210938 -72.42600250244139 L -21.007999420166016 -72.58699798583983 L -21.007999420166016 -72.91300201416014 L -21.041000366210938 -73.07399749755858 L -21.0939998626709 -73.22899627685545 L -21.166000366210938 -73.37599945068358 L -21.256000518798828 -73.51200103759764 L -21.36400032043457 -73.63600158691405 L -21.37962532043457 -73.64949798583983 L -21.482187271118164 -73.72799682617186 L -21.60712432861328 -73.82362365722655 L -21.624000549316406 -73.83499908447264 L -21.770999908447266 -73.90699768066405 L -21.926000595092773 -73.95999908447264 L -22.08799934387207 -73.9919967651367 L -22.25 -74.00299835205077 L -22.413000106811523 -73.9919967651367 L -22.575000762939453 -73.95999908447264 L -22.729999542236328 -73.90699768066405 M -18.298999786376953 -72.46499633789061 L -18.43199920654297 -72.45617675781249 L -18.4950008392334 -72.45200347900389 L -18.687000274658203 -72.41400146484374 L -18.874000549316406 -72.34999847412108 L -19.048999786376953 -72.26300048828124 L -19.21299934387207 -72.15399932861327 L -19.361000061035156 -72.02500152587889 L -19.490999221801758 -71.87699890136717 L -19.599000930786133 -71.71399688720702 L -19.615903854370117 -71.68000030517577 L -19.687000274658203 -71.53700256347655 L -19.749000549316406 -71.35099792480467 L -19.788000106811523 -71.15799713134764 L -19.801000595092773 -70.96199798583983 L -19.788000106811523 -70.76599884033202 L -19.749000549316406 -70.57299804687499 L -19.687000274658203 -70.38700103759764 L -19.599000930786133 -70.21099853515624 L -19.490999221801758 -70.04799652099608 L -19.361000061035156 -69.90000152587889 L -19.21299934387207 -69.76999664306639 L -19.048999786376953 -69.66100311279295 L -18.99066734313965 -69.63200378417967 L -18.874000549316406 -69.57399749755858 L -18.687000274658203 -69.51100158691405 L -18.4950008392334 -69.47299957275389 L -18.298999786376953 -69.45999908447264 L -18.10300064086914 -69.47299957275389 L -17.909000396728516 -69.51100158691405 L -17.722999572753906 -69.57399749755858 L -17.605667114257812 -69.63200378417967 L -17.547000885009766 -69.66100311279295 L -17.382999420166016 -69.76999664306639 L -17.236000061035156 -69.90000152587889 L -17.10700035095215 -70.04799652099608 L -16.996999740600586 -70.21099853515624 L -16.910999298095703 -70.38700103759764 L -16.847000122070312 -70.57299804687499 L -16.808000564575195 -70.76599884033202 L -16.795000076293945 -70.96199798583983 L -16.808000564575195 -71.15799713134764 L -16.847000122070312 -71.35099792480467 L -16.910999298095703 -71.53700256347655 L -16.980480194091797 -71.68000030517577 L -16.996999740600586 -71.71399688720702 L -17.10700035095215 -71.87699890136717 L -17.236000061035156 -72.02500152587889 L -17.382999420166016 -72.15399932861327 L -17.547000885009766 -72.26300048828124 L -17.722999572753906 -72.34999847412108 L -17.909000396728516 -72.41400146484374 L -18.10300064086914 -72.45200347900389 L -18.298999786376953 -72.46499633789061 M -42.030517578125 -73.72799682617186 L -42.137001037597656 -73.63600158691405 L -42.244998931884766 -73.51200103759764 L -42.334999084472656 -73.37599945068358 L -42.40700149536133 -73.22899627685545 L -42.459999084472656 -73.07399749755858 L -42.49300003051758 -72.91300201416014 L -42.50299835205078 -72.74999999999999 L -42.49300003051758 -72.58699798583983 L -42.459999084472656 -72.42600250244139 L -42.40700149536133 -72.27100372314452 L -42.334999084472656 -72.12400054931639 L -42.244998931884766 -71.98799896240233 L -42.137001037597656 -71.86399841308592 L -41.89659881591797 -71.68000030517577 L -41.87699890136719 -71.66500091552733 L -41.72999954223633 -71.59300231933592 L -41.57500076293945 -71.54000091552733 L -41.41299819946289 -71.50800323486327 L -41.25 -71.4980010986328 L -41.0880012512207 -71.50800323486327 L -40.959999084472656 -71.53328704833983 L -40.92599868774414 -71.54000091552733 L -40.770999908447266 -71.59300231933592 L -40.624000549316406 -71.66500091552733 L -40.36399841308594 -71.86399841308592 L -40.25600051879883 -71.98799896240233 L -40.16600036621094 -72.12400054931639 L -40.09400177001953 -72.27100372314452 L -40.04100036621094 -72.42600250244139 L -40.007999420166016 -72.58699798583983 L -40.007999420166016 -72.91300201416014 L -40.04100036621094 -73.07399749755858 L -40.09400177001953 -73.22899627685545 L -40.16600036621094 -73.37599945068358 L -40.25600051879883 -73.51200103759764 L -40.36399841308594 -73.63600158691405 L -40.48419952392578 -73.72799682617186 L -40.624000549316406 -73.83499908447264 L -40.770999908447266 -73.90699768066405 L -40.92599868774414 -73.95999908447264 L -41.0880012512207 -73.9919967651367 L -41.25 -74.00299835205077 L -41.41299819946289 -73.9919967651367 L -41.57500076293945 -73.95999908447264 L -41.72999954223633 -73.90699768066405 L -41.87699890136719 -73.83499908447264 L -41.99512481689453 -73.75537872314452 L -42.027626037597656 -73.73049926757811 L -42.030517578125 -73.72799682617186 M -50.1879997253418 -82.56199645996092 L -50.334999084472656 -82.69200134277342 L -50.499000549316406 -82.80100250244139 L -50.67499923706055 -82.88800048828124 L -50.861000061035156 -82.95099639892577 L -51.05400085449219 -82.98999786376952 L -51.20000076293945 -82.9996871948242 L -51.25 -83.00299835205077 L -51.44599914550781 -82.98999786376952 L -51.638999938964844 -82.95099639892577 L -51.82500076293945 -82.88800048828124 L -52.000999450683594 -82.80100250244139 L -52.165000915527344 -82.69200134277342 L -52.3120002746582 -82.56199645996092 L -52.44200134277344 -82.41500091552733 L -52.55099868774414 -82.25099945068358 L -52.63800048828125 -82.07499694824217 L -52.69049835205078 -81.9199981689453 L -52.70100021362305 -81.88899993896483 L -52.7400016784668 -81.6959991455078 L -52.75199890136719 -81.49999999999999 L -52.7400016784668 -81.30400085449217 L -52.70100021362305 -81.11100006103514 L -52.63800048828125 -80.9250030517578 L -52.55099868774414 -80.74900054931639 L -52.44200134277344 -80.58499908447264 L -52.3120002746582 -80.43800354003905 L -52.165000915527344 -80.30799865722655 L -52.000999450683594 -80.19899749755858 L -51.82500076293945 -80.11199951171874 L -51.638999938964844 -80.0490036010742 L -51.44599914550781 -80.01000213623045 L -51.25 -79.9980010986328 L -51.20000076293945 -80.00106048583983 L -51.05400085449219 -80.01000213623045 L -50.861000061035156 -80.0490036010742 L -50.67499923706055 -80.11199951171874 L -50.499000549316406 -80.19899749755858 L -50.334999084472656 -80.30799865722655 L -50.1879997253418 -80.43800354003905 L -50.05799865722656 -80.58499908447264 L -49.94900131225586 -80.74900054931639 L -49.86199951171875 -80.9250030517578 L -49.79899978637695 -81.11100006103514 L -49.7599983215332 -81.30400085449217 L -49.74700164794922 -81.49999999999999 L -49.7599983215332 -81.6959991455078 L -49.79899978637695 -81.88899993896483 L -49.80950164794922 -81.9199981689453 L -49.86199951171875 -82.07499694824217 L -49.94900131225586 -82.25099945068358 L -50.05799865722656 -82.41500091552733 L -50.1879997253418 -82.56199645996092 M -23.027624130249023 -51.23049926757811 L -23.062925338745117 -51.20000076293944 L -23.136999130249023 -51.13600158691405 L -23.2450008392334 -51.01200103759764 L -23.334999084472656 -50.87599945068358 L -23.406999588012695 -50.72900009155272 L -23.459999084472656 -50.574001312255845 L -23.493000030517578 -50.412998199462876 L -23.503999710083008 -50.249999999999986 L -23.493000030517578 -50.087001800537095 L -23.459999084472656 -49.925998687744126 L -23.406999588012695 -49.77099990844725 L -23.334999084472656 -49.62400054931639 L -23.2450008392334 -49.48799896240233 L -23.136999130249023 -49.36399841308592 L -23.027624130249023 -49.26950073242186 L -22.99512481689453 -49.24462509155272 L -22.87700080871582 -49.16500091552733 L -22.8504581451416 -49.15200042724608 L -22.729999542236328 -49.09299850463866 L -22.575000762939453 -49.04000091552733 L -22.413000106811523 -49.007999420166 L -22.08799934387207 -49.007999420166 L -21.926000595092773 -49.04000091552733 L -21.770999908447266 -49.09299850463866 L -21.650541305541992 -49.15200042724608 L -21.624000549316406 -49.16500091552733 L -21.505874633789062 -49.24462509155272 L -21.47337532043457 -49.26950073242186 L -21.36400032043457 -49.36399841308592 L -21.256000518798828 -49.48799896240233 L -21.166000366210938 -49.62400054931639 L -21.0939998626709 -49.77099990844725 L -21.041000366210938 -49.925998687744126 L -21.007999420166016 -50.087001800537095 L -21.007999420166016 -50.412998199462876 L -21.041000366210938 -50.574001312255845 L -21.0939998626709 -50.72900009155272 L -21.166000366210938 -50.87599945068358 L -21.256000518798828 -51.01200103759764 L -21.36400032043457 -51.13600158691405 L -21.37962532043457 -51.149501800537095 L -21.44560432434082 -51.20000076293944 L -21.60712432861328 -51.32362365722655 L -21.624000549316406 -51.33499908447264 L -21.770999908447266 -51.407001495361314 L -21.926000595092773 -51.45999908447264 L -22.08799934387207 -51.49200057983397 L -22.25 -51.50299835205077 L -22.413000106811523 -51.49200057983397 L -22.575000762939453 -51.45999908447264 L -22.729999542236328 -51.407001495361314 L -22.87700080871582 -51.33499908447264 L -22.99512481689453 -51.25537490844725 L -23.027624130249023 -51.23049926757811 M -40.92599868774414 -51.45999908447264 L -40.959999084472656 -51.46671676635741 L -41.0880012512207 -51.49200057983397 L -41.25 -51.50299835205077 L -41.41299819946289 -51.49200057983397 L -41.57500076293945 -51.45999908447264 L -41.72999954223633 -51.407001495361314 L -41.87699890136719 -51.33499908447264 L -41.99512481689453 -51.25537490844725 L -42.027626037597656 -51.23049926757811 L -42.06292724609375 -51.20000076293944 L -42.137001037597656 -51.13600158691405 L -42.244998931884766 -51.01200103759764 L -42.334999084472656 -50.87599945068358 L -42.40700149536133 -50.72900009155272 L -42.459999084472656 -50.574001312255845 L -42.49300003051758 -50.412998199462876 L -42.50299835205078 -50.249999999999986 L -42.49300003051758 -50.087001800537095 L -42.459999084472656 -49.925998687744126 L -42.40700149536133 -49.77099990844725 L -42.334999084472656 -49.62400054931639 L -42.244998931884766 -49.48799896240233 L -42.137001037597656 -49.36399841308592 L -41.87699890136719 -49.16500091552733 L -41.850460052490234 -49.15200042724608 L -41.72999954223633 -49.09299850463866 L -41.57500076293945 -49.04000091552733 L -41.41299819946289 -49.007999420166 L -41.0880012512207 -49.007999420166 L -40.92599868774414 -49.04000091552733 L -40.770999908447266 -49.09299850463866 L -40.650543212890625 -49.15200042724608 L -40.624000549316406 -49.16500091552733 L -40.60712432861328 -49.17637634277342 L -40.37962341308594 -49.350498199462876 L -40.36399841308594 -49.36399841308592 L -40.25600051879883 -49.48799896240233 L -40.16600036621094 -49.62400054931639 L -40.09400177001953 -49.77099990844725 L -40.04100036621094 -49.925998687744126 L -40.007999420166016 -50.087001800537095 L -40.007999420166016 -50.412998199462876 L -40.04100036621094 -50.574001312255845 L -40.09400177001953 -50.72900009155272 L -40.16600036621094 -50.87599945068358 L -40.25600051879883 -51.01200103759764 L -40.36399841308594 -51.13600158691405 L -40.44761657714844 -51.20000076293944 L -40.624000549316406 -51.33499908447264 L -40.770999908447266 -51.407001495361314 L -40.92599868774414 -51.45999908447264 M -56.5 -33.00099945068359 L -56.696998596191406 -32.98799896240234 L -56.888999938964844 -32.94900131225585 L -57.07500076293945 -32.886001586914055 L -57.25199890136719 -32.798999786376946 L -57.29835891723633 -32.76800155639648 L -57.34400177001953 -32.73748016357421 L -57.415000915527344 -32.68999862670898 L -57.5629997253418 -32.56000137329101 L -57.69300079345703 -32.41299819946288 L -57.801998138427734 -32.2490005493164 L -57.888999938964844 -32.07300186157226 L -57.95199966430664 -31.886999130249016 L -57.9900016784668 -31.694000244140618 L -58.00299835205078 -31.497999191284173 L -57.9900016784668 -31.30200004577636 L -57.95199966430664 -31.10899925231933 L -57.888999938964844 -30.923000335693352 L -57.801998138427734 -30.74699974060058 L -57.69300079345703 -30.58300018310546 L -57.5629997253418 -30.436000823974602 L -57.415000915527344 -30.305999755859368 L -57.34400177001953 -30.2585220336914 L -57.25199890136719 -30.197000503540032 L -57.07500076293945 -30.110000610351555 L -56.888999938964844 -30.04700088500976 L -56.696998596191406 -30.00799942016601 L -56.5 -29.99500083923339 L -56.30400085449219 -30.00799942016601 L -56.11199951171875 -30.04700088500976 L -55.92599868774414 -30.110000610351555 L -55.749000549316406 -30.197000503540032 L -55.58599853515625 -30.305999755859368 L -55.4379997253418 -30.436000823974602 L -55.30799865722656 -30.58300018310546 L -55.21694564819336 -30.719999313354485 L -55.19900131225586 -30.74699974060058 L -55.11199951171875 -30.923000335693352 L -55.04899978637695 -31.10899925231933 L -55.01100158691406 -31.30200004577636 L -54.99800109863281 -31.497999191284173 L -55.01100158691406 -31.694000244140618 L -55.04899978637695 -31.886999130249016 L -55.11199951171875 -32.07300186157226 L -55.19900131225586 -32.2490005493164 L -55.30799865722656 -32.41299819946288 L -55.4379997253418 -32.56000137329101 L -55.58599853515625 -32.68999862670898 L -55.702640533447266 -32.76800155639648 L -55.749000549316406 -32.798999786376946 L -55.92599868774414 -32.886001586914055 L -56.11199951171875 -32.94900131225585 L -56.30400085449219 -32.98799896240234 L -56.5 -33.00099945068359 M -19.21299934387207 -28.97500038146972 L -19.361000061035156 -28.84600067138671 L -19.490999221801758 -28.697999954223626 L -19.50822639465332 -28.67200088500976 L -19.599000930786133 -28.534999847412102 L -19.687000274658203 -28.357999801635735 L -19.749000549316406 -28.17200088500976 L -19.788000106811523 -27.979000091552727 L -19.801000595092773 -27.783000946044915 L -19.788000106811523 -27.58699989318847 L -19.749000549316406 -27.393999099731438 L -19.687000274658203 -27.20800018310546 L -19.599000930786133 -27.031999588012688 L -19.490999221801758 -26.868999481201165 L -19.361000061035156 -26.72100067138671 L -19.250568389892578 -26.6240005493164 L -19.21299934387207 -26.590999603271477 L -19.048999786376953 -26.48200035095214 L -18.874000549316406 -26.395000457763665 L -18.687000274658203 -26.332000732421868 L -18.4950008392334 -26.294000625610344 L -18.298999786376953 -26.281000137329094 L -18.10300064086914 -26.294000625610344 L -17.909000396728516 -26.332000732421868 L -17.722999572753906 -26.395000457763665 L -17.547000885009766 -26.48200035095214 L -17.382999420166016 -26.590999603271477 L -17.345684051513672 -26.6240005493164 L -17.236000061035156 -26.72100067138671 L -17.10700035095215 -26.868999481201165 L -16.996999740600586 -27.031999588012688 L -16.909000396728516 -27.20800018310546 L -16.847000122070312 -27.393999099731438 L -16.808000564575195 -27.58699989318847 L -16.795000076293945 -27.783000946044915 L -16.808000564575195 -27.979000091552727 L -16.847000122070312 -28.17200088500976 L -16.909000396728516 -28.357999801635735 L -16.996999740600586 -28.534999847412102 L -17.089454650878906 -28.67200088500976 L -17.10700035095215 -28.697999954223626 L -17.236000061035156 -28.84600067138671 L -17.382999420166016 -28.97500038146972 L -17.547000885009766 -29.083999633789055 L -17.722999572753906 -29.170999526977532 L -17.909000396728516 -29.235000610351555 L -18.10300064086914 -29.27300071716308 L -18.298999786376953 -29.285999298095696 L -18.4950008392334 -29.27300071716308 L -18.687000274658203 -29.235000610351555 L -18.874000549316406 -29.170999526977532 L -19.048999786376953 -29.083999633789055 L -19.21299934387207 -28.97500038146972 M 57.41400146484375 22.30599975585937 L 57.34400177001953 22.259189605712887 L 57.250999450683594 22.197000503540036 L 57.07400131225586 22.11000061035156 L 56.88800048828125 22.047000885009762 L 56.69599914550781 22.007999420166012 L 56.5 21.995000839233395 L 56.303001403808594 22.007999420166012 L 56.111000061035156 22.047000885009762 L 55.92499923706055 22.11000061035156 L 55.74800109863281 22.197000503540036 L 55.584999084472656 22.30599975585937 L 55.4370002746582 22.436000823974606 L 55.35564041137695 22.527999877929684 L 55.30699920654297 22.583000183105465 L 55.198001861572266 22.746999740600582 L 55.111000061035156 22.923000335693356 L 55.04800033569336 23.108999252319332 L 55.0099983215332 23.302000045776364 L 54.99700164794922 23.497999191284176 L 55.0099983215332 23.69400024414062 L 55.04800033569336 23.88699913024902 L 55.111000061035156 24.072999954223626 L 55.198001861572266 24.2490005493164 L 55.30699920654297 24.413000106811516 L 55.4370002746582 24.559999465942376 L 55.45521545410156 24.57600021362304 L 55.584999084472656 24.69000053405761 L 55.74800109863281 24.798999786376946 L 55.92499923706055 24.885999679565423 L 56.111000061035156 24.94899940490722 L 56.303001403808594 24.98800086975097 L 56.5 24.999999999999993 L 56.69599914550781 24.98800086975097 L 56.88800048828125 24.94899940490722 L 57.07400131225586 24.885999679565423 L 57.250999450683594 24.798999786376946 L 57.41400146484375 24.69000053405761 L 57.543785095214844 24.57600021362304 L 57.5620002746582 24.559999465942376 L 57.69200134277344 24.413000106811516 L 57.80099868774414 24.2490005493164 L 57.88800048828125 24.072999954223626 L 57.95100021362305 23.88699913024902 L 57.98899841308594 23.69400024414062 L 58.00199890136719 23.497999191284176 L 57.98899841308594 23.302000045776364 L 57.95100021362305 23.108999252319332 L 57.88800048828125 22.923000335693356 L 57.80099868774414 22.746999740600582 L 57.69200134277344 22.583000183105465 L 57.5620002746582 22.436000823974606 L 57.41400146484375 22.30599975585937 M 43.08599853515625 41.04000091552734 L 43.007999420166016 41.02449798583984 L 42.92499923706055 41.00799942016601 L 42.762001037597656 40.99700164794921 L 42.5989990234375 41.00799942016601 L 42.4379997253418 41.04000091552734 L 42.28300094604492 41.092998504638665 L 42.13600158691406 41.16500091552734 L 42 41.25600051879882 L 41.875999450683594 41.36399841308593 L 41.768001556396484 41.48799896240234 L 41.676998138427734 41.6240005493164 L 41.60499954223633 41.77099990844726 L 41.551998138427734 41.92599868774413 L 41.54047393798828 41.98400115966796 L 41.52000045776367 42.0870018005371 L 41.5099983215332 42.24999999999999 L 41.52000045776367 42.41299819946288 L 41.551998138427734 42.57400131225585 L 41.60499954223633 42.72900009155273 L 41.676998138427734 42.87599945068359 L 41.765323638916016 43.00799942016601 L 41.768001556396484 43.01200103759765 L 41.875999450683594 43.136001586914055 L 42 43.243999481201165 L 42.13600158691406 43.33499908447265 L 42.28300094604492 43.40700149536132 L 42.4379997253418 43.45999908447265 L 42.5989990234375 43.49200057983398 L 42.74162673950195 43.50075149536132 L 42.78237533569336 43.50075149536132 L 42.92499923706055 43.49200057983398 L 43.007999420166016 43.47550201416015 L 43.08599853515625 43.45999908447265 L 43.24100112915039 43.40700149536132 L 43.38800048828125 43.33499908447265 L 43.52399826049805 43.243999481201165 L 43.64799880981445 43.136001586914055 L 43.75600051879883 43.01200103759765 L 43.75867462158203 43.00799942016601 L 43.84700012207031 42.87599945068359 L 43.91899871826172 42.72900009155273 L 43.97200012207031 42.57400131225585 L 44.00400161743164 42.41299819946288 L 44.01499938964844 42.24999999999999 L 44.00400161743164 42.0870018005371 L 43.97200012207031 41.92599868774413 L 43.91899871826172 41.77099990844726 L 43.84700012207031 41.6240005493164 L 43.75600051879883 41.48799896240234 L 43.64799880981445 41.36399841308593 L 43.52399826049805 41.25600051879882 L 43.38800048828125 41.16500091552734 L 43.24100112915039 41.092998504638665 L 43.08599853515625 41.04000091552734 M 43.97200012207031 64.42600250244139 L 43.91899871826172 64.27100372314452 L 43.84700012207031 64.12400054931639 L 43.75600051879883 63.98799896240233 L 43.64799880981445 63.86399841308592 L 43.52399826049805 63.756000518798814 L 43.38800048828125 63.66500091552733 L 43.24100112915039 63.59299850463866 L 43.08599853515625 63.54000091552733 L 43.007999420166016 63.52449798583983 L 42.92499923706055 63.507999420166 L 42.762001037597656 63.497001647949205 L 42.5989990234375 63.507999420166 L 42.4379997253418 63.54000091552733 L 42.28300094604492 63.59299850463866 L 42.13600158691406 63.66500091552733 L 42 63.756000518798814 L 41.875999450683594 63.86399841308592 L 41.768001556396484 63.98799896240233 L 41.676998138427734 64.12400054931639 L 41.60499954223633 64.27100372314452 L 41.551998138427734 64.42600250244139 L 41.534908294677734 64.51200103759764 L 41.52000045776367 64.58699798583983 L 41.5099983215332 64.74999999999999 L 41.52000045776367 64.91300201416014 L 41.551998138427734 65.07399749755858 L 41.60499954223633 65.22899627685545 L 41.676998138427734 65.37599945068358 L 41.768001556396484 65.51200103759764 L 41.788902282714844 65.53600311279295 L 41.875999450683594 65.63600158691405 L 42 65.74400329589842 L 42.13600158691406 65.83499908447264 L 42.28300094604492 65.90699768066405 L 42.4379997253418 65.95999908447264 L 42.5989990234375 65.9919967651367 L 42.6193733215332 65.99324798583983 L 42.904624938964844 65.99324798583983 L 42.92499923706055 65.9919967651367 L 43.08599853515625 65.95999908447264 L 43.24100112915039 65.90699768066405 L 43.38800048828125 65.83499908447264 L 43.52399826049805 65.74400329589842 L 43.64799880981445 65.63600158691405 L 43.7350959777832 65.53600311279295 L 43.75600051879883 65.51200103759764 L 43.84700012207031 65.37599945068358 L 43.91899871826172 65.22899627685545 L 43.97200012207031 65.07399749755858 L 44.00400161743164 64.91300201416014 L 44.01499938964844 64.74999999999999 L 44.00400161743164 64.58699798583983 L 43.98909378051758 64.51200103759764 L 43.97200012207031 64.42600250244139 M 24.756000518798828 63.98799896240233 L 24.648000717163086 63.86399841308592 L 24.576000213623047 63.801288604736314 L 24.52400016784668 63.756000518798814 L 24.38800048828125 63.66500091552733 L 24.240999221801758 63.59299850463866 L 24.086000442504883 63.54000091552733 L 23.924999237060547 63.507999420166 L 23.761999130249023 63.497001647949205 L 23.599000930786133 63.507999420166 L 23.552000045776367 63.51734161376952 L 23.437999725341797 63.54000091552733 L 23.283000946044922 63.59299850463866 L 23.13599967956543 63.66500091552733 L 23 63.756000518798814 L 22.875999450683594 63.86399841308592 L 22.76799964904785 63.98799896240233 L 22.677000045776367 64.12400054931639 L 22.604999542236328 64.27100372314452 L 22.552000045776367 64.42600250244139 L 22.5349063873291 64.51200103759764 L 22.527999877929688 64.54675292968749 L 22.520000457763672 64.58699798583983 L 22.510000228881836 64.74999999999999 L 22.520000457763672 64.91300201416014 L 22.527999877929688 64.95324707031249 L 22.552000045776367 65.07399749755858 L 22.604999542236328 65.22899627685545 L 22.677000045776367 65.37599945068358 L 22.76799964904785 65.51200103759764 L 22.788902282714844 65.53600311279295 L 22.875999450683594 65.63600158691405 L 23 65.74400329589842 L 23.13599967956543 65.83499908447264 L 23.283000946044922 65.90699768066405 L 23.437999725341797 65.95999908447264 L 23.599000930786133 65.9919967651367 L 23.924999237060547 65.9919967651367 L 24.086000442504883 65.95999908447264 L 24.240999221801758 65.90699768066405 L 24.38800048828125 65.83499908447264 L 24.52400016784668 65.74400329589842 L 24.576000213623047 65.69870758056639 L 24.648000717163086 65.63600158691405 L 24.735095977783203 65.53600311279295 L 24.756000518798828 65.51200103759764 L 24.847000122070312 65.37599945068358 L 24.91900062561035 65.22899627685545 L 24.972000122070312 65.07399749755858 L 25.003999710083008 64.91300201416014 L 25.014999389648438 64.74999999999999 L 25.003999710083008 64.58699798583983 L 24.972000122070312 64.42600250244139 L 24.91900062561035 64.27100372314452 L 24.847000122070312 64.12400054931639 L 24.756000518798828 63.98799896240233 M 16.757999420166016 73.69899749755858 L 16.58099937438965 73.61199951171874 L 16.395000457763672 73.5490036010742 L 16.384000778198242 73.54676818847655 L 16.202999114990234 73.51000213623045 L 16.006999969482422 73.4970016479492 L 15.8100004196167 73.51000213623045 L 15.618000030517578 73.5490036010742 L 15.432000160217285 73.61199951171874 L 15.255000114440918 73.69899749755858 L 15.21163272857666 73.72799682617186 L 15.092000007629395 73.80799865722655 L 14.944000244140625 73.93800354003905 L 14.814000129699707 74.08499908447264 L 14.704999923706055 74.24900054931639 L 14.618000030517578 74.4250030517578 L 14.555000305175781 74.61100006103514 L 14.517000198364258 74.80400085449217 L 14.503999710083008 74.99999999999999 L 14.517000198364258 75.1959991455078 L 14.555000305175781 75.38899993896483 L 14.618000030517578 75.57499694824217 L 14.704999923706055 75.75099945068358 L 14.7216157913208 75.77600097656249 L 14.814000129699707 75.91500091552733 L 14.944000244140625 76.06199645996092 L 15.092000007629395 76.19200134277342 L 15.255000114440918 76.30100250244139 L 15.432000160217285 76.38800048828124 L 15.618000030517578 76.45099639892577 L 15.8100004196167 76.48999786376952 L 16.006999969482422 76.50199890136717 L 16.202999114990234 76.48999786376952 L 16.384000778198242 76.45323181152342 L 16.395000457763672 76.45099639892577 L 16.58099937438965 76.38800048828124 L 16.757999420166016 76.30100250244139 L 16.92099952697754 76.19200134277342 L 17.069000244140625 76.06199645996092 L 17.198999404907227 75.91500091552733 L 17.291383743286133 75.77600097656249 L 17.308000564575195 75.75099945068358 L 17.395000457763672 75.57499694824217 L 17.45800018310547 75.38899993896483 L 17.496000289916992 75.1959991455078 L 17.509000778198242 74.99999999999999 L 17.496000289916992 74.80400085449217 L 17.45800018310547 74.61100006103514 L 17.395000457763672 74.4250030517578 L 17.308000564575195 74.24900054931639 L 17.198999404907227 74.08499908447264 L 17.069000244140625 73.93800354003905 L 16.92099952697754 73.80799865722655 L 16.801366806030273 73.72799682617186 L 16.757999420166016 73.69899749755858 M -56.11199951171875 22.05100059509277 L -56.30400085449219 22.01199913024902 L -56.5 21.999000549316403 L -56.696998596191406 22.01199913024902 L -56.888999938964844 22.05100059509277 L -57.07500076293945 22.114000320434567 L -57.25199890136719 22.201000213623043 L -57.34400177001953 22.26252174377441 L -57.415000915527344 22.30999946594238 L -57.5629997253418 22.440000534057614 L -57.69300079345703 22.586999893188473 L -57.801998138427734 22.75099945068359 L -57.888999938964844 22.927000045776364 L -57.95199966430664 23.113000869750973 L -57.9900016784668 23.30599975585937 L -58.00299835205078 23.502000808715817 L -57.9900016784668 23.69799995422363 L -57.95199966430664 23.89100074768066 L -57.888999938964844 24.076999664306634 L -57.801998138427734 24.253000259399407 L -57.69300079345703 24.416999816894524 L -57.5629997253418 24.563999176025384 L -57.549339294433594 24.57600021362304 L -57.415000915527344 24.694000244140618 L -57.25199890136719 24.802999496459954 L -57.07500076293945 24.88999938964843 L -56.888999938964844 24.952999114990227 L -56.696998596191406 24.992000579833977 L -56.5 25.003999710083 L -56.30400085449219 24.992000579833977 L -56.11199951171875 24.952999114990227 L -55.92599868774414 24.88999938964843 L -55.749000549316406 24.802999496459954 L -55.58599853515625 24.694000244140618 L -55.45166015625 24.57600021362304 L -55.4379997253418 24.563999176025384 L -55.30799865722656 24.416999816894524 L -55.19900131225586 24.253000259399407 L -55.11199951171875 24.076999664306634 L -55.04899978637695 23.89100074768066 L -55.01100158691406 23.69799995422363 L -54.99800109863281 23.502000808715817 L -55.01100158691406 23.30599975585937 L -55.04899978637695 23.113000869750973 L -55.11199951171875 22.927000045776364 L -55.19900131225586 22.75099945068359 L -55.30799865722656 22.586999893188473 L -55.36017608642578 22.527999877929684 L -55.4379997253418 22.440000534057614 L -55.58599853515625 22.30999946594238 L -55.749000549316406 22.201000213623043 L -55.92599868774414 22.114000320434567 L -56.11199951171875 22.05100059509277 M -21.624000549316406 41.16500091552734 L -21.770999908447266 41.092998504638665 L -21.926000595092773 41.04000091552734 L -22.08799934387207 41.00799942016601 L -22.413000106811523 41.00799942016601 L -22.527999877929688 41.030715942382805 L -22.575000762939453 41.04000091552734 L -22.729999542236328 41.092998504638665 L -22.87700080871582 41.16500091552734 L -23.136999130249023 41.36399841308593 L -23.2450008392334 41.48799896240234 L -23.334999084472656 41.6240005493164 L -23.406999588012695 41.77099990844726 L -23.459999084472656 41.92599868774413 L -23.493000030517578 42.0870018005371 L -23.503999710083008 42.24999999999999 L -23.493000030517578 42.41299819946288 L -23.459999084472656 42.57400131225585 L -23.406999588012695 42.72900009155273 L -23.334999084472656 42.87599945068359 L -23.24764633178711 43.00799942016601 L -23.2450008392334 43.01200103759765 L -23.136999130249023 43.136001586914055 L -23.027624130249023 43.23049926757812 L -22.99512481689453 43.25537490844726 L -22.87700080871582 43.33499908447265 L -22.729999542236328 43.40700149536132 L -22.575000762939453 43.45999908447265 L -22.413000106811523 43.49200057983398 L -22.25 43.502998352050774 L -22.08799934387207 43.49200057983398 L -21.926000595092773 43.45999908447265 L -21.770999908447266 43.40700149536132 L -21.624000549316406 43.33499908447265 L -21.60712432861328 43.323623657226555 L -21.37962532043457 43.1495018005371 L -21.36400032043457 43.136001586914055 L -21.256000518798828 43.01200103759765 L -21.253353118896484 43.00799942016601 L -21.166000366210938 42.87599945068359 L -21.0939998626709 42.72900009155273 L -21.041000366210938 42.57400131225585 L -21.007999420166016 42.41299819946288 L -21.007999420166016 42.0870018005371 L -21.029111862182617 41.98400115966796 L -21.041000366210938 41.92599868774413 L -21.0939998626709 41.77099990844726 L -21.166000366210938 41.6240005493164 L -21.256000518798828 41.48799896240234 L -21.36400032043457 41.36399841308593 L -21.47337532043457 41.26950073242187 L -21.505874633789062 41.24462509155273 L -21.624000549316406 41.16500091552734 M -22.413000106811523 63.507999420166 L -22.527999877929688 63.5307159423828 L -22.575000762939453 63.54000091552733 L -22.729999542236328 63.59299850463866 L -22.87700080871582 63.66500091552733 L -23.136999130249023 63.86399841308592 L -23.2450008392334 63.98799896240233 L -23.334999084472656 64.12400054931639 L -23.406999588012695 64.27100372314452 L -23.459999084472656 64.42600250244139 L -23.493000030517578 64.58699798583983 L -23.503999710083008 64.74999999999999 L -23.493000030517578 64.91300201416014 L -23.459999084472656 65.07399749755858 L -23.406999588012695 65.22899627685545 L -23.334999084472656 65.37599945068358 L -23.2450008392334 65.51200103759764 L -23.224096298217773 65.53600311279295 L -23.136999130249023 65.63600158691405 L -23.027624130249023 65.73049926757811 L -22.99512481689453 65.75537872314452 L -22.87700080871582 65.83499908447264 L -22.729999542236328 65.90699768066405 L -22.575000762939453 65.95999908447264 L -22.413000106811523 65.9919967651367 L -22.25 66.00299835205077 L -22.08799934387207 65.9919967651367 L -21.926000595092773 65.95999908447264 L -21.770999908447266 65.90699768066405 L -21.624000549316406 65.83499908447264 L -21.36400032043457 65.63600158691405 L -21.27690315246582 65.53600311279295 L -21.256000518798828 65.51200103759764 L -21.166000366210938 65.37599945068358 L -21.0939998626709 65.22899627685545 L -21.041000366210938 65.07399749755858 L -21.007999420166016 64.91300201416014 L -21.007999420166016 64.58699798583983 L -21.023372650146484 64.51200103759764 L -21.041000366210938 64.42600250244139 L -21.0939998626709 64.27100372314452 L -21.166000366210938 64.12400054931639 L -21.256000518798828 63.98799896240233 L -21.36400032043457 63.86399841308592 L -21.624000549316406 63.66500091552733 L -21.770999908447266 63.59299850463866 L -21.926000595092773 63.54000091552733 L -22.08799934387207 63.507999420166 L -22.413000106811523 63.507999420166 M -40.92599868774414 41.04000091552734 L -40.959999084472656 41.03328323364257 L -41.0880012512207 41.00799942016601 L -41.41299819946289 41.00799942016601 L -41.57500076293945 41.04000091552734 L -41.72999954223633 41.092998504638665 L -41.87699890136719 41.16500091552734 L -41.99512481689453 41.24462509155273 L -42.027626037597656 41.26950073242187 L -42.137001037597656 41.36399841308593 L -42.244998931884766 41.48799896240234 L -42.334999084472656 41.6240005493164 L -42.40700149536133 41.77099990844726 L -42.459999084472656 41.92599868774413 L -42.47188949584961 41.98400115966796 L -42.49300003051758 42.0870018005371 L -42.50299835205078 42.24999999999999 L -42.49300003051758 42.41299819946288 L -42.459999084472656 42.57400131225585 L -42.40700149536133 42.72900009155273 L -42.334999084472656 42.87599945068359 L -42.24764633178711 43.00799942016601 L -42.244998931884766 43.01200103759765 L -42.137001037597656 43.136001586914055 L -42.027626037597656 43.23049926757812 L -41.99512481689453 43.25537490844726 L -41.87699890136719 43.33499908447265 L -41.72999954223633 43.40700149536132 L -41.57500076293945 43.45999908447265 L -41.41299819946289 43.49200057983398 L -41.25 43.502998352050774 L -41.0880012512207 43.49200057983398 L -40.959999084472656 43.466716766357415 L -40.92599868774414 43.45999908447265 L -40.770999908447266 43.40700149536132 L -40.624000549316406 43.33499908447265 L -40.50587463378906 43.25537490844726 L -40.47337341308594 43.23049926757812 L -40.36399841308594 43.136001586914055 L -40.25600051879883 43.01200103759765 L -40.253353118896484 43.00799942016601 L -40.16600036621094 42.87599945068359 L -40.09400177001953 42.72900009155273 L -40.04100036621094 42.57400131225585 L -40.007999420166016 42.41299819946288 L -40.007999420166016 42.0870018005371 L -40.04100036621094 41.92599868774413 L -40.09400177001953 41.77099990844726 L -40.16600036621094 41.6240005493164 L -40.25600051879883 41.48799896240234 L -40.36399841308594 41.36399841308593 L -40.37962341308594 41.35049819946288 L -40.60712432861328 41.17637634277343 L -40.624000549316406 41.16500091552734 L -40.770999908447266 41.092998504638665 L -40.92599868774414 41.04000091552734 M -40.959999084472656 63.533283233642564 L -41.0880012512207 63.507999420166 L -41.41299819946289 63.507999420166 L -41.57500076293945 63.54000091552733 L -41.72999954223633 63.59299850463866 L -41.87699890136719 63.66500091552733 L -42.137001037597656 63.86399841308592 L -42.244998931884766 63.98799896240233 L -42.334999084472656 64.12400054931639 L -42.40700149536133 64.27100372314452 L -42.459999084472656 64.42600250244139 L -42.47762680053711 64.51200103759764 L -42.49300003051758 64.58699798583983 L -42.50299835205078 64.74999999999999 L -42.49300003051758 64.91300201416014 L -42.459999084472656 65.07399749755858 L -42.40700149536133 65.22899627685545 L -42.334999084472656 65.37599945068358 L -42.244998931884766 65.51200103759764 L -42.224098205566406 65.53600311279295 L -42.137001037597656 65.63600158691405 L -41.87699890136719 65.83499908447264 L -41.72999954223633 65.90699768066405 L -41.57500076293945 65.95999908447264 L -41.41299819946289 65.9919967651367 L -41.25 66.00299835205077 L -41.0880012512207 65.9919967651367 L -40.92599868774414 65.95999908447264 L -40.770999908447266 65.90699768066405 L -40.624000549316406 65.83499908447264 L -40.36399841308594 65.63600158691405 L -40.27690505981445 65.53600311279295 L -40.25600051879883 65.51200103759764 L -40.16600036621094 65.37599945068358 L -40.09400177001953 65.22899627685545 L -40.04100036621094 65.07399749755858 L -40.007999420166016 64.91300201416014 L -40.007999420166016 64.58699798583983 L -40.04100036621094 64.42600250244139 L -40.09400177001953 64.27100372314452 L -40.16600036621094 64.12400054931639 L -40.25600051879883 63.98799896240233 L -40.36399841308594 63.86399841308592 L -40.624000549316406 63.66500091552733 L -40.770999908447266 63.59299850463866 L -40.92599868774414 63.54000091552733 L -40.959999084472656 63.533283233642564 M -15.991999626159668 73.69899749755858 L -16.16900062561035 73.61199951171874 L -16.354999542236328 73.5490036010742 L -16.384000778198242 73.54310607910155 L -16.547000885009766 73.51000213623045 L -16.743000030517578 73.4970016479492 L -16.940000534057617 73.51000213623045 L -17.131999969482422 73.5490036010742 L -17.31800079345703 73.61199951171874 L -17.4950008392334 73.69899749755858 L -17.538366317749023 73.72799682617186 L -17.658000946044922 73.80799865722655 L -17.805999755859375 73.93800354003905 L -17.93600082397461 74.08499908447264 L -18.045000076293945 74.24900054931639 L -18.131999969482422 74.4250030517578 L -18.19499969482422 74.61100006103514 L -18.232999801635742 74.80400085449217 L -18.246000289916992 74.99999999999999 L -18.232999801635742 75.1959991455078 L -18.19499969482422 75.38899993896483 L -18.131999969482422 75.57499694824217 L -18.045000076293945 75.75099945068358 L -18.028383255004883 75.77600097656249 L -17.93600082397461 75.91500091552733 L -17.805999755859375 76.06199645996092 L -17.658000946044922 76.19200134277342 L -17.4950008392334 76.30100250244139 L -17.31800079345703 76.38800048828124 L -17.131999969482422 76.45099639892577 L -16.940000534057617 76.48999786376952 L -16.743000030517578 76.50199890136717 L -16.547000885009766 76.48999786376952 L -16.384000778198242 76.45689392089842 L -16.354999542236328 76.45099639892577 L -16.16900062561035 76.38800048828124 L -15.991999626159668 76.30100250244139 L -15.829000473022461 76.19200134277342 L -15.680999755859375 76.06199645996092 L -15.550999641418457 75.91500091552733 L -15.458616256713867 75.77600097656249 L -15.442000389099121 75.75099945068358 L -15.354999542236328 75.57499694824217 L -15.291999816894531 75.38899993896483 L -15.253999710083008 75.1959991455078 L -15.241000175476074 74.99999999999999 L -15.253999710083008 74.80400085449217 L -15.291999816894531 74.61100006103514 L -15.354999542236328 74.4250030517578 L -15.442000389099121 74.24900054931639 L -15.550999641418457 74.08499908447264 L -15.680999755859375 73.93800354003905 L -15.829000473022461 73.80799865722655 L -15.948633193969727 73.72799682617186 L -15.991999626159668 73.69899749755858 M 43.564998626708984 -36.502998352050774 L 32.768001556396484 -36.502998352050774 L 32.060001373291016 -36.502998352050774 L 32.060001373291016 -32.76800155639648 L 32.060001373291016 -24.997999191284173 L 32.768001556396484 -24.997999191284173 L 43.564998626708984 -24.997999191284173 L 43.564998626708984 -32.76800155639648 L 43.564998626708984 -36.502998352050774 M -31.934999465942383 -36.502998352050774 L -32.768001556396484 -36.502998352050774 L -43.439998626708984 -36.502998352050774 L -43.439998626708984 -32.76800155639648 L -43.439998626708984 -24.997999191284173 L -32.768001556396484 -24.997999191284173 L -31.934999465942383 -24.997999191284173 L -31.934999465942383 -32.76800155639648 L -31.934999465942383 -36.502998352050774 M 43.564998626708984 28.502000808715813 L 43.564998626708984 16.996999740600582 L 32.768001556396484 16.996999740600582 L 32.060001373291016 16.996999740600582 L 32.060001373291016 28.502000808715813 L 32.768001556396484 28.502000808715813 L 43.564998626708984 28.502000808715813 M 22.520000457763672 42.0870018005371 L 22.510000228881836 42.24999999999999 L 22.520000457763672 42.41299819946288 L 22.527999877929688 42.45325088500976 L 22.527999877929688 42.04674911499023 L 22.520000457763672 42.0870018005371 M -32.685001373291016 16.996999740600582 L -32.768001556396484 16.996999740600582 L -44.189998626708984 16.996999740600582 L -44.189998626708984 28.502000808715813 L -32.768001556396484 28.502000808715813 L -32.685001373291016 28.502000808715813 L -32.685001373291016 16.996999740600582 z" fill="none" stroke="rgb(255,0,0)" stroke-width="0.001mm" />
</svg>